<?xml version="1.0" encoding="utf-8"?>
<svg viewBox="0 65.568 500 369.872" xmlns="http://www.w3.org/2000/svg">
  <path stroke="rgb(255,0,0)" stroke-width="0" d="M 68.018 73.701 C 72.305 73.269 79.681 73.807 85.205 75.849 C 89.44 77.416 95.307 81.471 99.014 84.316 C 100.479 83.814 102.008 83.472 103.465 83.369 C 106.13 83.18 109.212 83.799 112.195 84.769 C 113.312 82.058 114.391 78.804 116.355 77.461 C 119.622 75.227 123.989 75.309 129.245 75.312 C 136.172 75.316 149.386 76.992 155.026 79.072 C 155.123 79.108 155.219 79.144 155.313 79.18 C 156.21 78.834 157.09 78.556 157.89 78.356 C 160.283 77.756 161.975 77.878 164.872 78.356 C 168.94 79.026 175.584 80.832 180.448 83.189 C 185.346 85.565 191.574 88.736 194.143 92.588 C 195.257 94.259 195.925 96.315 196.251 98.386 C 201.967 98.647 208.768 98.394 213.031 98.407 C 218.064 98.422 222.085 98.794 225.384 97.87 C 228.079 97.114 229.505 94.738 231.829 94.11 C 234.159 93.481 236.838 93.303 239.348 94.11 C 242.208 95.031 245.313 99.505 247.941 100.018 C 250.065 100.432 250.191 98.788 253.849 98.407 C 262.774 97.477 292.903 96.725 310.78 98.407 C 327.496 99.98 345.255 103.909 358.043 107.537 C 368.12 110.396 376.567 113.854 382.749 117.205 C 387.404 119.728 391.462 123.292 393.222 124.993 C 394.103 125.843 393.55 125.819 394.565 126.872 C 397.265 129.673 409.799 139.139 414.706 144.328 C 418.435 148.272 420.411 150.437 422.762 155.069 C 425.7 160.857 427.853 173.813 430.013 177.358 C 431.058 179.073 431.74 177.801 432.967 179.775 C 436.161 184.917 445.219 207.848 447.468 218.982 C 449.225 227.683 447.098 235.705 448.005 241.54 C 448.678 245.869 450.567 246.885 451.227 251.744 C 452.28 259.494 452.803 276.612 451.227 286.118 C 449.945 293.857 447.767 299.319 444.245 305.453 C 440.496 311.982 433.015 319.972 428.938 323.982 C 426.257 326.62 423.949 326.824 422.225 329.085 C 420.389 331.493 420.697 334.902 418.465 338.215 C 415.476 342.654 407.619 350.107 404.233 352.985 C 402.241 354.677 401.392 354.191 399.667 355.939 C 396.948 358.695 391.803 364.123 390 369.903 C 387.905 376.619 390.675 387.092 389.463 394.609 C 388.355 401.474 385.973 408.876 383.555 413.407 C 381.747 416.794 379.618 418.882 377.378 420.657 C 375.375 422.245 374.864 422.989 370.933 423.88 C 362.255 425.847 330.078 427.481 318.836 427.102 C 312.273 426.881 309.238 426.476 305.409 424.954 C 301.917 423.566 298.766 421.257 296.547 418.778 C 294.473 416.46 293.045 414.097 292.251 410.721 C 291.26 406.513 294.474 397.531 292.251 394.877 C 290.363 392.624 287.119 393.83 281.777 393.803 C 271.941 393.754 246.682 397.584 233.44 397.026 C 223.094 396.59 211.932 389.888 207.66 392.729 C 204.2 395.029 207.303 403.461 205.78 408.036 C 204.342 412.355 201.853 416.915 199.066 419.583 C 196.624 421.922 194.73 422.998 190.473 423.88 C 183.658 425.291 169.089 424.869 159.322 423.88 C 150.19 422.955 140.761 419.298 133.542 418.509 C 127.856 417.888 123.075 419.735 119.041 418.509 C 115.455 417.419 112.104 414.733 110.179 412.333 C 108.517 410.26 108.056 408.854 107.494 405.35 C 106.54 399.416 108.985 382.899 107.494 377.422 C 106.64 374.286 105.969 374.139 103.465 371.783 C 98.938 367.522 84.535 359.93 78.491 354.327 C 73.812 349.991 71.753 345.079 68.555 341.706 C 65.879 338.884 63.496 338.06 60.767 334.992 C 57.23 331.016 51.387 323.71 49.488 318.88 C 48.025 315.157 48.663 310.418 48.414 308.675 C 48.303 307.897 48.638 307.902 48.146 307.333 C 46.966 305.97 39.849 303.866 37.673 301.156 C 35.721 298.726 37.13 294.073 34.987 292.294 C 32.638 290.344 26.681 291.938 23.44 290.683 C 20.535 289.559 18.164 288.279 16.189 285.581 C 13.691 282.166 11.696 275.561 10.818 270.542 C 9.974 265.714 9.974 260.87 10.818 256.041 C 11.696 251.023 13.934 244.676 16.189 241.003 C 17.961 238.117 19.006 237.048 22.366 234.826 C 27.811 231.226 48.082 226.225 48.951 222.742 C 49.553 220.333 41.558 218.748 39.284 216.297 C 37.332 214.193 36.259 211.996 35.524 209.315 C 34.711 206.347 33.806 203.298 34.987 199.11 C 36.759 192.825 44.425 182.255 49.488 174.941 C 54.212 168.118 62.024 158.565 64.258 156.412 C 65.012 155.686 64.853 156.352 65.601 155.606 C 67.864 153.35 80.781 140.511 80.639 135.734 C 80.536 132.238 73.941 130.7 72.046 128.215 C 70.534 126.232 69.827 124.513 69.361 122.307 C 68.851 119.902 69.051 116.195 69.361 114.251 C 69.573 112.917 70.944 112.494 70.435 111.297 C 69.488 109.074 61.248 105.406 58.619 102.435 C 56.569 100.118 55.517 98.135 54.859 95.453 C 54.131 92.486 53.865 88.396 54.859 85.248 C 55.877 82.028 58.635 78.312 61.036 76.386 C 63.108 74.724 64.954 74.01 68.018 73.701 Z" style="stroke: rgb(129, 151, 57); stroke-width: 2px; fill: rgb(236, 185, 207);"/>
  <g transform="matrix(1.1328790187835693, 0, 0, 1.1328790187835693, -44.360032449961636, -31.877446170969158)">
    <path style="paint-order: fill markers; fill: none; stroke-width: 10px; stroke: rgb(0, 0, 0);" d="M 92.109 295.602 C 34.33 296.587 29.983 223.043 91.892 221.584 C 153.801 220.125 149.888 294.617 92.109 295.602 Z"/>
    <path style="fill: none; stroke-linecap: round; stroke-width: 10px; stroke: rgb(0, 0, 0);" d="M 419.3 176.897 C 419.3 176.897 447.939 163.615 447.801 145.491 C 447.663 127.367 439.272 118.671 429.262 118.229 C 423.197 117.961 411.517 128.419 419.382 140.355 C 428.9 154.801 454.711 156.096 472.566 150.056"/>
    <path style="fill: none; stroke-linecap: round; stroke-width: 10px; stroke: rgb(0, 0, 0);" d="M 155.707 142.783 C 155.707 142.783 149.121 110.513 137.431 100.14 C 125.741 89.767 195.386 89.933 221.564 126.483"/>
    <path style="fill: none; stroke-width: 10px; stroke: rgb(0, 0, 0);" d="M 104.549 151.653 C 105.444 152.324 95.488 111.844 85.214 101.994 C 74.94 92.144 138.827 85.074 149.594 122.868"/>
    <path style="fill: none; stroke-width: 10px; stroke: rgb(0, 0, 0);" d="M 70.373 224.267 C 70.373 224.267 74.402 180.151 104.416 151.95 C 134.43 123.749 149.337 122.943 149.337 122.943"/>
    <path style="fill: none; stroke-linejoin: round; stroke-linecap: round; stroke-width: 10px; stroke: rgb(0, 0, 0);" d="M 211.117 114.636 L 307.898 114.242 C 307.898 114.242 391.277 115.819 419.266 177.317 C 447.255 238.815 435.331 266.774 430.206 293.384 C 425.081 319.994 381.52 355.803 381.52 355.803 C 381.52 355.803 383.122 399.65 372.055 401.924 C 362.339 403.92 336.417 403.75 326.563 402.656 C 308.091 400.605 315.091 375.147 311.952 375.353 C 302.127 375.998 221.662 375.317 221.662 375.317 C 221.662 375.317 223.306 399.387 211.548 401.449 C 201.851 403.149 168.582 403.109 162.002 401.839 C 150.767 399.671 152.476 368.724 152.476 368.724 C 152.476 368.724 126.539 358.719 107.063 341.118 C 90.786 326.41 79.4 303.913 77.246 294.042"/>
    <path style="stroke-width: 10px; stroke-linecap: round; fill: none; stroke: rgb(0, 0, 0);" d="M 127.314 310.862 C 127.314 310.862 152.945 309.67 160.098 282.648"/>
    <ellipse style="stroke: rgb(0, 0, 0);" cx="104.825" cy="198.814" rx="8.804" ry="12.529"/>
    <ellipse style="stroke: rgb(0, 0, 0);" cx="153.108" cy="198.601" rx="8.804" ry="12.529"/>
    <path style="fill: none; stroke-linecap: round; stroke-width: 15px; stroke: rgb(0, 0, 0);" d="M 244.154 138.839 L 316.973 138.839"/>
    <ellipse style="stroke: rgb(0, 0, 0);" cx="74.578" cy="256.564" rx="6.453" ry="6.105"/>
    <ellipse style="stroke: rgb(0, 0, 0);" cx="98.996" cy="256.564" rx="6.453" ry="6.105"/>
    <path style="fill: none; stroke-width: 10px; stroke-linecap: round; stroke: rgb(0, 0, 0);" d="M 133.245 359.396 C 133.245 359.396 129.898 390.326 139.45 397.536 C 144.069 401.023 159.186 401.636 159.186 401.636"/>
    <path style="stroke-width: 10px; stroke-linecap: round; stroke-linejoin: round; fill: none; stroke: rgb(0, 0, 0);" d="M 293.094 376.651 C 293.094 376.651 292.238 393.016 299.488 398.719 C 304.947 403.013 322.588 402.226 322.588 402.226"/>
  </g>
</svg>