<?xml version="1.0" encoding="utf-8"?>
<svg viewBox="0 65.568 500 369.872" xmlns="http://www.w3.org/2000/svg">
    <g transform="matrix(1.1328790187835696, 0, 0, 1.1328790187835696, -44.36003244996152, -31.877444263620475)">
        <path style="stroke: rgb(0, 0, 0); paint-order: fill markers; fill: none; stroke-width: 10px;" d="M 92.109 295.602 C 34.33 296.587 29.983 223.043 91.892 221.584 C 153.801 220.125 149.888 294.617 92.109 295.602 Z"/>
        <path style="stroke: rgb(0, 0, 0); fill: none; stroke-linecap: round; stroke-width: 10px;" d="M 419.3 176.897 C 419.3 176.897 447.939 163.615 447.801 145.491 C 447.663 127.367 439.272 118.671 429.262 118.229 C 423.197 117.961 411.517 128.419 419.382 140.355 C 428.9 154.801 454.711 156.096 472.566 150.056"/>
        <path style="stroke: rgb(0, 0, 0); fill: none; stroke-linecap: round; stroke-width: 10px;" d="M 155.707 142.783 C 155.707 142.783 149.121 110.513 137.431 100.14 C 125.741 89.767 195.386 89.933 221.564 126.483"/>
        <path style="stroke: rgb(0, 0, 0); fill: none; stroke-width: 10px;" d="M 104.549 151.653 C 105.444 152.324 95.488 111.844 85.214 101.994 C 74.94 92.144 138.827 85.074 149.594 122.868"/>
        <path style="stroke: rgb(0, 0, 0); fill: none; stroke-width: 10px;" d="M 70.373 224.267 C 70.373 224.267 74.402 180.151 104.416 151.95 C 134.43 123.749 149.337 122.943 149.337 122.943"/>
        <path style="stroke: rgb(0, 0, 0); fill: none; stroke-linejoin: round; stroke-linecap: round; stroke-width: 10px;" d="M 211.117 114.636 L 307.898 114.242 C 307.898 114.242 391.277 115.819 419.266 177.317 C 447.255 238.815 435.331 266.774 430.206 293.384 C 425.081 319.994 381.52 355.803 381.52 355.803 C 381.52 355.803 383.122 399.65 372.055 401.924 C 362.339 403.92 336.417 403.75 326.563 402.656 C 308.091 400.605 315.091 375.147 311.952 375.353 C 302.127 375.998 221.662 375.317 221.662 375.317 C 221.662 375.317 223.306 399.387 211.548 401.449 C 201.851 403.149 168.582 403.109 162.002 401.839 C 150.767 399.671 152.476 368.724 152.476 368.724 C 152.476 368.724 126.539 358.719 107.063 341.118 C 90.786 326.41 79.4 303.913 77.246 294.042"/>
        <path style="stroke: rgb(0, 0, 0); stroke-width: 10px; stroke-linecap: round; fill: none;" d="M 127.314 310.862 C 127.314 310.862 152.945 309.67 160.098 282.648"/>
        <ellipse style="" cx="104.825" cy="198.814" rx="8.804" ry="12.529"/>
        <ellipse style="" cx="153.108" cy="198.601" rx="8.804" ry="12.529"/>
        <path style="stroke: rgb(0, 0, 0); fill: none; stroke-linecap: round; stroke-width: 15px;" d="M 244.154 138.839 L 316.973 138.839"/>
        <ellipse style="" cx="74.578" cy="256.564" rx="6.453" ry="6.105"/>
        <ellipse style="" cx="98.996" cy="256.564" rx="6.453" ry="6.105"/>
        <path style="stroke: rgb(0, 0, 0); fill: none; stroke-width: 10px; stroke-linecap: round;" d="M 133.245 359.396 C 133.245 359.396 129.898 390.326 139.45 397.536 C 144.069 401.023 159.186 401.636 159.186 401.636"/>
        <path style="stroke: rgb(0, 0, 0); stroke-width: 10px; stroke-linecap: round; stroke-linejoin: round; fill: none;" d="M 293.094 376.651 C 293.094 376.651 292.238 393.016 299.488 398.719 C 304.947 403.013 322.588 402.226 322.588 402.226"/>
    </g>
</svg>